<svg xmlns="http://www.w3.org/2000/svg" width="250" height="185" viewBox="0 0 250 185">
  <g fill="#FFFFFF" fill-rule="evenodd">
    <g transform="translate(56.686 174.803)">
      <path d="M2.01482558 2.30448819L2.01482558 7.66948819 3.5380814 7.66948819C5.14273256 7.66948819 6.22412791 6.58425197 6.22412791 5.01102362L6.22412791 4.98625984C6.22412791 3.4130315 5.14273256 2.30448819 3.5380814 2.30448819L2.01482558 2.30448819zM.19505814.648228346L3.5380814.648228346C6.2619186.648228346 8.13982558 2.52007874 8.13982558 4.96295276L8.13982558 4.98625984C8.13982558 7.43059055 6.2619186 9.32574803 3.5380814 9.32574803L.19505814 9.32574803.19505814.648228346zM15.8017442 4.87933858C16.7523256 4.87933858 17.3235465 4.36658268 17.3235465 3.60473228L17.3235465 3.5799685C17.3235465 2.74674016 16.7290698 2.30390551 15.7668605 2.30390551L13.8031977 2.30390551 13.8031977 4.87933858 15.8017442 4.87933858zM11.9834302.649102362L15.9194767.649102362C17.0139535.649102362 17.8700581.95792126 18.4412791 1.53040157 18.9180233 2.00674016 19.1665698 2.68701575 19.1665698 3.48528346L19.1665698 3.50859055C19.1665698 4.91575591 18.393314 5.79705512 17.2755814 6.1903622L19.4398256 9.32516535 17.2988372 9.32516535 15.384593 6.5006378 13.8031977 6.5006378 13.8031977 9.32516535 11.9834302 9.32516535 11.9834302.649102362z"/>
      <polygon points="23.129 9.326 24.962 9.326 24.962 .648 23.129 .648"/>
      <polygon points="29.279 .649 30.955 .649 35.129 6.119 35.129 .649 36.939 .649 36.939 9.326 35.379 9.326 31.074 3.676 31.074 9.326 29.279 9.326"/>
      <polygon points="41.174 .649 42.994 .649 42.994 4.558 46.608 .649 48.857 .649 45.302 4.343 49.013 9.326 46.81 9.326 44.063 5.594 42.994 6.703 42.994 9.326 41.174 9.326"/>
      <path d="M57.5411337 8.06235827L58.6239826 6.76298819C59.4088663 7.4185 60.2300872 7.83511417 61.2402616 7.83511417 62.0498547 7.83511417 62.5484012 7.48987795 62.5484012 6.95381496L62.5484012 6.92905118C62.5484012 6.41775197 62.2388081 6.15409055 60.7649709 5.78554724 58.9931686 5.34416929 57.8856105 4.84452362 57.8856105 3.14019291L57.8856105 3.11542913C57.8856105 1.56696457 59.1457849.529799213 60.9059593.529799213 62.1675872.529799213 63.2257267.923106299 64.1065407 1.62668898L63.1428779 3.00909055C62.38125 2.45991732 61.6210756 2.13944488 60.8710756 2.13944488 60.1109012 2.13944488 59.7053779 2.50798819 59.7053779 2.94936614L59.7053779 2.97267323C59.7053779 3.56991732 60.0861919 3.77094094 61.6094477 4.16424803 63.38125 4.61727953 64.3681686 5.2611378 64.3681686 6.75133465L64.3681686 6.77464173C64.3681686 8.48042913 63.0600291 9.44475984 61.2053779 9.44475984 59.884157 9.44475984 58.5760174 8.99172835 57.5411337 8.06235827M75.0497093 5.01087795L75.0497093 4.98611417C75.0497093 3.46095669 73.9305233 2.18635039 72.3607558 2.18635039 70.7909884 2.18635039 69.6965116 3.43764961 69.6965116 4.96280709L69.6965116 4.98611417C69.6965116 6.51272835 70.8156977 7.78733465 72.3854651 7.78733465 73.9552326 7.78733465 75.0497093 6.53603543 75.0497093 5.01087795M67.7822674 5.01087795L67.7822674 4.98611417C67.7822674 2.53158661 69.7212209.505326772 72.3854651.505326772 75.0497093.505326772 76.9639535 2.49516929 76.9639535 4.96280709L76.9639535 4.98611417C76.9639535 7.44209843 75.025 9.46835827 72.3607558 9.46835827 69.6965116 9.46835827 67.7822674 7.47851575 67.7822674 5.01087795M80.4152616 5.01087795L80.4152616 4.98611417C80.4152616 2.51993307 82.2699128.505326772 84.9225291.505326772 86.5518895.505326772 87.5271802 1.04138976 88.3353198 1.83965748L87.1696221 3.18709843C86.4922965 2.56800394 85.803343 2.18635039 84.9109012 2.18635039 83.4123547 2.18635039 82.3295058 3.43764961 82.3295058 4.96280709L82.3295058 4.98611417C82.3295058 6.51272835 83.3890988 7.78733465 84.9109012 7.78733465 85.9210756 7.78733465 86.5402616 7.38237402 87.2292151 6.75016929L88.3949128 7.93009055C87.5039244 8.87257087 86.5155523 9.46835827 84.8513081 9.46835827 82.30625 9.46835827 80.4152616 7.50182283 80.4152616 5.01087795"/>
      <polygon points="92.144 9.326 93.975 9.326 93.975 .648 92.144 .648"/>
      <path d="M103.313372,5.72582283 L102.098256,2.78184646 L100.874419,5.72582283 L103.313372,5.72582283 Z M101.279942,0.588066929 L102.967442,0.588066929 L106.689826,9.32531102 L104.775581,9.32531102 L103.965988,7.34712205 L100.220349,7.34712205 L99.4107558,9.32531102 L97.5444767,9.32531102 L101.279942,0.588066929 Z"/>
      <polygon points="110.189 .649 112.007 .649 112.007 7.657 116.372 7.657 116.372 9.326 110.189 9.326"/>
      <polygon points="119.953 .649 121.774 .649 121.774 7.657 126.138 7.657 126.138 9.326 119.953 9.326"/>
      <polygon points="130.565 5.905 127.222 .649 129.363 .649 131.492 4.201 133.668 .649 135.749 .649 132.396 5.869 132.396 9.325 130.565 9.325"/>
    </g>
    <g transform="translate(0 120.906)">
      <path d="M.000726744186 28.3251024L.000726744186 2.39159843C.000726744186 2.16289764.185319767 1.97644094.41497093 1.97644094L8.06468023 1.97644094C8.29287791 1.97644094 8.47892442 2.16289764 8.47892442 2.39159843L8.47892442 27.8371102C8.47892442 33.8503386 11.0850291 36.1591969 16.71875 36.1591969 22.2928779 36.1591969 24.8364826 33.8503386 24.8364826 27.8371102L24.8364826 2.39159843C24.8364826 2.16289764 25.0225291 1.97644094 25.2507267 1.97644094L32.900436 1.97644094C33.1300872 1.97644094 33.3161337 2.16289764 33.3161337 2.39159843L33.3161337 28.3251024C33.3161337 38.7666772 26.1068314 43.8024646 16.71875 43.8024646 7.20857558 43.8024646.000726744186 38.7666772.000726744186 28.3251024M39.5273256 1.53855906L64.6625 25.2010787 64.6363372 2.3921811C64.6363372 2.16348031 64.8223837 1.97556693 65.0520349 1.97556693L72.156686 1.97556693C72.3848837 1.97556693 72.5709302 2.16202362 72.5709302 2.3921811L72.5709302 43.3325354C72.5709302 43.7462362 72.0796512 43.9603701 71.7773256 43.6777717L46.6421512 20.0502126 46.6436047 42.8430866C46.6436047 43.0732441 46.4590116 43.2597008 46.2293605 43.2597008L39.1232558 43.2597008C38.8936047 43.2597008 38.7090116 43.0732441 38.7090116 42.8430866L38.7337209 1.88233858C38.7337209 1.4686378 39.2264535 1.25596063 39.5273256 1.53855906M88.9828488 9.44650787L77.6456395 9.44650787C77.4159884 9.44650787 77.2299419 9.26005118 77.2299419 9.0298937L77.2299419 2.39174409C77.2299419 2.16304331 77.4159884 1.97658661 77.6456395 1.97658661L108.799709 1.97658661C109.02936 1.97658661 109.215407 2.16304331 109.215407 2.39174409L109.215407 9.0298937C109.215407 9.26005118 109.02936 9.44650787 108.799709 9.44650787L97.4639535 9.44650787 97.4639535 42.8441063C97.4639535 43.0728071 97.277907 43.2592638 97.0497093 43.2592638L89.397093 43.2592638C89.1688953 43.2592638 88.9828488 43.0728071 88.9828488 42.8441063L88.9828488 9.44650787zM122.831831 17.3594094L117.331831 31.4820472 128.176308 31.4820472 122.831831 17.3594094zM123.270785 1.7669685L141.778052 42.6723622C141.903052 42.9476772 141.702471 43.2594094 141.400145 43.2594094L133.417587 43.2594094C133.250436 43.2594094 133.099273 43.1588976 133.036773 43.0030315L131.199564 38.5863386 114.482994 38.5863386 112.650145 43.0030315C112.584738 43.1588976 112.435029 43.2594094 112.266424 43.2594094L105.00189 43.2594094C104.702471 43.2594094 104.503343 42.9520472 104.622529 42.678189L122.408866 1.77425197C122.571657 1.3984252 123.10218 1.39551181 123.270785 1.7669685L123.270785 1.7669685zM157.188953 26.3847874C164.094477 26.3847874 167.119186 23.5923071 167.119186 17.9447087 167.119186 12.2373858 163.972384 9.4463622 157.188953 9.4463622L154.518895 9.4463622 154.518895 26.3847874 157.188953 26.3847874zM146.040698 2.39159843C146.040698 2.16289764 146.225291 1.97644094 146.454942 1.97644094L157.428779 1.97644094C168.936047 1.97644094 175.843023 7.99112598 175.843023 17.9447087 175.843023 27.8982913 168.877907 33.8503386 157.428779 33.8503386L154.518895 33.8503386 154.518895 42.8439606C154.518895 43.0741181 154.334302 43.2591181 154.104651 43.2591181L146.454942 43.2591181C146.225291 43.2591181 146.040698 43.0741181 146.040698 42.8439606L146.040698 2.39159843zM192.010174 26.3847874C198.918605 26.3847874 201.950581 23.5923071 201.950581 17.9447087 201.950581 12.2373858 198.796512 9.4463622 192.010174 9.4463622L189.348837 9.4463622 189.348837 26.3847874 192.010174 26.3847874zM180.87064 2.39159843C180.87064 2.16289764 181.056686 1.97644094 181.284884 1.97644094L192.257267 1.97644094C203.768895 1.97644094 210.671512 7.99112598 210.671512 17.9447087 210.671512 27.8982913 203.702035 33.8503386 192.257267 33.8503386L189.348837 33.8503386 189.348837 42.8439606C189.348837 43.0741181 189.162791 43.2591181 188.934593 43.2591181L181.284884 43.2591181C181.056686 43.2591181 180.87064 43.0741181 180.87064 42.8439606L180.87064 2.39159843zM227.207558 35.7935669C236.352907 35.7935669 240.53314 30.3280551 240.53314 22.6206929 240.53314 14.9089606 236.352907 9.4463622 227.207558 9.4463622L223.451744 9.4463622 223.451744 35.7935669 227.207558 35.7935669zM214.972093 2.39159843C214.972093 2.16289764 215.15814 1.97644094 215.386337 1.97644094L227.62907 1.97644094C240.293314 1.97644094 249.31657 10.4179764 249.31657 22.6206929 249.31657 34.8219528 240.35436 43.2591181 227.62907 43.2591181L215.386337 43.2591181C215.15814 43.2591181 214.972093 43.0741181 214.972093 42.8439606L214.972093 2.39159843z"/>
    </g>
    <g transform="translate(61.047)">
      <path d="M58.3318314 59.7130472L27.5949128 102.638874C26.0207849 104.837024 23.3739826 105.990724 20.69375 105.657142 17.6428779 105.276945 13.4422965 104.131984 9.10944767 101.016118 4.77805233 97.900252 2.35072674 94.2803701 1.01497093 91.5053701-.157994186 89.0668661.0832848837 86.1840709 1.65886628 83.9844646L32.3957849 41.0586378C33.8594477 39.0134409 35.7780523 37.3382441 38.0018895 36.1656063L44.0484012 32.9754488C45.262064 32.3345039 46.3478198 31.4808819 47.25625 30.451 50.190843 27.1224567 58.0702035 18.3939528 72.0425872 4.28879528L72.2853198 3.17005512C72.3420058 2.91222047 72.5367733 2.70828346 72.7925872 2.64418898L73.562936 2.45044882C73.8972384 2.36596063 74.1225291 2.04985827 74.0949128 1.70462205L74.0164244.753401575C73.9844477.360094488 74.2824128.0134015748 74.6748547.0017480315 75.6021802-.0244724409 77.4088663.243559055 79.9568314 2.07607874 82.5047965 3.90714173 83.3361919 5.5371811 83.6079942 6.42576378 83.7228198 6.80304724 83.4917151 7.19781102 83.1079942 7.29249606L82.1835756 7.52265354C81.8478198 7.60568504 81.6210756 7.92033071 81.6486919 8.26702362L81.7126453 9.05946457C81.7344477 9.32166929 81.6036337 9.57513386 81.378343 9.70914961L80.3986919 10.2991102C71.5382267 28.0795039 65.8085756 38.3550157 63.6021802 42.2079685 62.9190407 43.3995433 62.4597384 44.7032835 62.2431686 46.0609213L61.1617733 52.8243465C60.7649709 55.3094646 59.7969477 57.6678504 58.3318314 59.7130472zM125.565552 83.9838819L94.8286337 41.0580551C93.3649709 39.0128583 91.4449128 37.3391181 89.2239826 36.1664803L83.1760174 32.9748661C81.9623547 32.3339213 80.8765988 31.4817559 79.9681686 30.4504173 79.2486919 29.6346693 78.2094477 28.4722283 76.8722384 26.9995118 76.6614826 26.7693543 76.2690407 26.8188819 76.1236919 27.0971102 71.4638081 36.035378 68.3271802 41.6319921 66.9114826 44.1054567 66.4565407 44.8978976 66.1527616 45.7602598 66.0074128 46.6648661 65.6992733 48.5935276 65.6992733 50.560063 66.0074128 52.4872677L66.0626453 52.8237638C66.4594477 55.3088819 67.4274709 57.6672677 68.8925872 59.7124646L99.6295058 102.638291C101.189099 104.817504 103.79811 105.987228 106.456541 105.666756 109.513227 105.295299 113.747238 104.157622 118.114971 101.015535 122.446366 97.901126 124.872238 94.2812441 126.207994 91.5062441 127.382413 89.0662835 127.141134 86.1849449 125.565552 83.9838819M44.1162791 7.29264173L45.0406977 7.52279921C45.3764535 7.60583071 45.6017442 7.92193307 45.5755814 8.26716929L45.5116279 9.05961024C45.4898256 9.32327165 45.619186 9.57382283 45.8459302 9.70929528L46.8255814 10.2992559C48.4651163 13.5884685 49.9883721 16.6023661 51.4098837 19.3802795 51.5450581 19.6468543 51.8895349 19.6992953 52.0930233 19.4807913 54.4011628 17.0073268 57.1787791 14.0720906 60.4563953 10.6750827 60.7267442 10.3953976 60.7412791 9.94819291 60.4709302 9.66996457 58.8110465 7.96854724 57.065407 6.1899252 55.181686 4.28894094L54.9389535 3.16874409C54.8837209 2.91236614 54.6860465 2.70842913 54.431686 2.64433465L53.6613372 2.45059449C53.3270349 2.3661063 53.1017442 2.05000394 53.1293605 1.70476772L53.2078488.753547244C53.2398256.36169685 52.9476744.0135472441 52.556686.00189370079 51.6322674-.0257834646 49.8226744.237877953 47.2674419 2.07476772 44.7194767 3.9072874 43.8880814 5.53732677 43.6162791 6.42590945 43.5014535 6.80319291 43.7325581 7.19795669 44.1162791 7.29264173"/>
    </g>
  </g>
</svg>
